<?xml version="1.0" ?><!-- Uploaded to: SVG Repo, www.svgrepo.com, Generator: SVG Repo Mixer Tools -->
<svg fill="#000000" width="800px" height="800px" viewBox="0 0 24 24" id="Layer_2" version="1.1" xml:space="preserve" xmlns="http://www.w3.org/2000/svg" xmlns:xlink="http://www.w3.org/1999/xlink"><path d="M19.5,9.226h-2.867V5.5c0-1.378-1.121-2.5-2.5-2.5H5.5C4.121,3,3,4.122,3,5.5v4.917c0,1.378,1.121,2.5,2.5,2.5h2.778v1.444  H7.902c-1.313,0-2.382,1.068-2.382,2.382v0.194c0,0.276,0.224,0.5,0.5,0.5h6.146v2.385c0,0.827,0.673,1.5,1.5,1.5H19.5  c0.827,0,1.5-0.673,1.5-1.5v-9.097C21,9.898,20.327,9.226,19.5,9.226z M4,10.417V5.5C4,4.673,4.673,4,5.5,4h8.633  c0.827,0,1.5,0.673,1.5,1.5v3.726h-1.966c-0.827,0-1.5,0.673-1.5,1.5v1.192h-1.313H8.778H5.5C4.673,11.917,4,11.245,4,10.417z   M10.354,12.917v1.321H9.278v-1.321H10.354z M11.354,12.917h0.813v1.501c-0.144-0.027-0.289-0.057-0.437-0.057h-0.376V12.917z   M6.555,16.438c0.14-0.615,0.69-1.076,1.348-1.076h3.828c0.15,0,0.296,0.032,0.437,0.079v0.997H6.555z M20,19.823  c0,0.276-0.225,0.5-0.5,0.5h-5.833c-0.275,0-0.5-0.224-0.5-0.5v-9.097c0-0.276,0.225-0.5,0.5-0.5H19.5c0.275,0,0.5,0.224,0.5,0.5  V19.823z"/><path d="M17.685,18.345h-2.203c-0.276,0-0.5,0.224-0.5,0.5s0.224,0.5,0.5,0.5h2.203c0.276,0,0.5-0.224,0.5-0.5  S17.961,18.345,17.685,18.345z"/></svg>